<?xml version="1.0" encoding="UTF-8" standalone="no"?>
<!DOCTYPE svg PUBLIC "-//W3C//DTD SVG 1.1//EN" "http://www.w3.org/Graphics/SVG/1.1/DTD/svg11.dtd">
<svg width="100%" height="100%" viewBox="0 0 629 628" version="1.1" xmlns="http://www.w3.org/2000/svg" xmlns:xlink="http://www.w3.org/1999/xlink" xml:space="preserve" xmlns:serif="http://www.serif.com/" style="fill-rule:evenodd;clip-rule:evenodd;stroke-linecap:round;stroke-linejoin:round;stroke-miterlimit:1.5;">
    <g transform="matrix(1,0,0,1,-733.557331,-1297.968439)">
        <g id="SSH-Logo" transform="matrix(1,0,0,1,546,1110)">
            <g transform="matrix(1.852391,0,0,1.095939,-466.741833,-1346.647421)">
                <rect x="356.593" y="1405.978" width="332.472" height="561.486" style="fill:white;stroke:white;stroke-width:8.21px;"/>
            </g>
            <path d="M758.454,788.09C739.35,788.705 250.317,788.657 245.547,788.085C216.468,784.603 195.446,760.564 194.766,732.493C194.693,729.474 194.734,357.053 194.741,356.504C195.016,337.1 210.441,340.563 275.5,340.554C651.066,340.507 652.939,341.068 652.983,338.567C653.109,331.276 654.526,249.455 652.6,247.41C651.928,246.696 251.98,245.807 244.611,247.871C209.984,257.571 241.168,311.954 208.544,309.144C186.508,307.247 192.227,255.993 205.908,238.802C227.428,211.76 234.283,215.557 360.5,215.557C761.159,215.557 761.498,215.152 771.358,218.899C816.34,235.992 809.271,276.416 809.271,335.5C809.271,740.428 809.695,740.784 806.011,750.328C792.732,784.731 762.097,787.409 758.454,788.09Z" style="fill:rgb(1,1,1);"/>
            <path d="M235.614,751.36C226.416,742.078 225.965,739.204 226.003,725.5C226.024,718.01 225.94,373.905 226.041,373.395C226.397,371.607 227.407,371.806 663.5,371.806C731.065,371.806 746.315,375.056 746.787,356.501C747.44,330.835 695.602,343.338 685.526,340.42C682.107,339.43 684.12,255.821 684.298,248.466C684.337,246.81 693.673,246.805 694.5,246.805C760.817,246.766 778.131,241.299 778.062,283.499C777.922,370.351 778.109,720.413 777.955,732.527C777.844,741.235 771.297,751.39 762.319,755.08C756.484,757.478 756.263,757.195 369.5,757.195C246.526,757.195 245.673,758.114 235.614,751.36Z" style="fill:rgb(254,254,254);"/>
            <path d="M606.507,725.905C587.226,722.385 590.571,715.079 590.548,657.5C590.518,582.012 587.682,570.661 605.512,569.776C634.259,568.349 615.932,631.824 623.539,632.142C651.706,633.32 652.675,632.939 652.95,630.599C654.976,613.354 644.234,565.918 671.418,569.96C686.832,572.252 684.27,580.822 684.27,664.5C684.27,703.186 688.097,726.087 668.496,725.912C640.169,725.66 660.113,663.471 650.502,663.438C634.794,663.382 621.838,662.544 621.814,665.522C621.468,708.007 626.363,722.927 606.507,725.905Z" style="fill:rgb(1,1,1);"/>
            <path d="M659.412,512.421C652.093,518.728 650.985,517.566 542.5,517.641C351.025,517.773 350.818,517.198 347.74,515.126C334.778,506.399 340.634,486.516 356.497,486.37C379.857,486.156 588.805,484.239 648.504,486.418C656.023,486.692 670.728,496.436 659.412,512.421Z" style="fill:rgb(1,1,1);"/>
            <path d="M379.5,600.934C377.645,600.976 360.14,601.371 356.607,604.628C354.688,606.397 338.295,629.678 370.51,632.375C424.688,636.91 433.985,725.52 360.501,726.001C347.418,726.087 319.513,730.323 319.789,709.515C320.191,679.111 381.688,711.261 382.158,678.513C382.504,654.393 343.952,674.207 324.999,638.243C309.623,609.068 329.543,570.091 366.503,569.745C382.552,569.595 416.43,565.15 413.255,587.465C410.748,605.086 385.206,600.906 379.5,600.934Z" style="fill:rgb(2,2,2);"/>
            <path d="M463.499,725.93C461.61,725.85 445.482,725.168 444.798,711.479C443.694,689.384 475.136,695.069 491.506,694.714C503.929,694.445 510.211,681.529 505.662,672.422C500.306,661.698 486.814,663.188 486.537,663.162C463.029,660.959 440.584,638.193 445.416,608.485C453.182,560.736 514.822,569.692 522.497,569.742C533.119,569.813 537.541,578.42 538.168,582.562C543.255,616.219 485.436,587.396 476.811,611.607C470.16,630.275 493.283,632.191 495.511,632.376C523.691,634.711 542.63,661.561 537.681,687.534C528.739,734.467 472.602,725.931 463.499,725.93Z" style="fill:rgb(1,1,1);"/>
            <path d="M276.539,444.461C265.407,433.259 256.567,426.78 257.278,417.483C257.665,412.422 261.356,404.839 270.462,403.25C276.181,402.253 281.318,401.357 326.097,449.852C339.392,464.25 313.858,483.008 312.929,483.93C292.459,504.235 275.106,528.359 260.931,512.132C246.328,495.415 282.138,473.219 291.284,461.359C292.714,459.504 282.028,449.927 276.539,444.461Z" style="fill:rgb(1,1,1);"/>
            <path d="M378.467,309.168C341.792,305.585 372.446,261.946 389.114,283.815C394.935,291.453 391.64,299.091 391.113,300.312C388.617,306.098 379.65,308.81 378.467,309.168Z"/>
            <path d="M423.934,292.533C424.313,291.197 427.163,281.148 434.618,278.854C443.107,276.241 449,281.298 449.406,281.614C471.372,298.737 427.18,328.17 423.934,292.533Z" style="fill:rgb(5,5,5);"/>
            <path d="M330.077,294.478C322.851,328.645 282.641,296.072 305.706,280.822C306.88,280.045 314.45,275.04 323.3,280.788C328.621,284.244 329.905,293.268 330.077,294.478Z" style="fill:rgb(1,1,1);"/>
        </g>
    </g>
</svg>
